<svg width="100%" height="100%" viewBox="0 0 41 45" fill="none" xmlns="http://www.w3.org/2000/svg">
<path d="M29.4015 27.544H24.725C23.9859 27.544 23.387 26.8897 23.387 26.0824C23.387 25.2751 23.9859 24.6208 24.725 24.6208H29.4015C30.1406 24.6208 30.7396 25.2751 30.7396 26.0824C30.7396 26.8898 30.1406 27.544 29.4015 27.544Z" fill="#6E4AFF"/>
<path d="M17.1561 19.2766C16.417 19.2766 15.8181 18.6224 15.8181 17.8151V12.7068C15.8181 11.8995 16.417 11.2452 17.1561 11.2452C17.8952 11.2452 18.4942 11.8995 18.4942 12.7068V17.8151C18.4942 18.6224 17.8952 19.2766 17.1561 19.2766Z" fill="#9177F8"/>
<path d="M19.2909 1.28615C17.7299 -0.428717 15.1788 -0.428717 13.6178 1.28615C12.0568 2.9913 12.0568 5.77793 13.6178 7.48308C14.376 8.31132 15.384 8.7692 16.4543 8.7692C17.5246 8.7692 18.5328 8.31123 19.2908 7.48308C20.861 5.77801 20.861 2.9913 19.2909 1.28615ZM17.404 5.41037C16.8607 6.00385 16.027 5.98004 15.5102 5.4165C14.998 4.85699 14.998 3.91215 15.5102 3.35264C16.0362 2.77579 16.8807 2.78455 17.3936 3.34686C17.9383 3.93911 17.9091 4.86215 17.404 5.41037Z" fill="#FCC727"/>
<path d="M34.1867 19.2769C34.9256 19.2769 35.5247 18.6225 35.5247 17.8153C35.5247 17.0081 34.9256 16.3538 34.1867 16.3538C33.4477 16.3538 32.8486 17.0081 32.8486 17.8153C32.8486 18.6225 33.4477 19.2769 34.1867 19.2769Z" fill="#1883FF"/>
<path d="M24.725 8.94174C25.464 8.94174 26.063 8.28739 26.063 7.48021C26.063 6.67303 25.464 6.01868 24.725 6.01868C23.986 6.01868 23.387 6.67303 23.387 7.48021C23.387 8.28739 23.986 8.94174 24.725 8.94174Z" fill="#50A1FF"/>
<path d="M34.1867 35.8117C34.9256 35.8117 35.5247 35.1573 35.5247 34.3501C35.5247 33.5429 34.9256 32.8885 34.1867 32.8885C33.4477 32.8885 32.8486 33.5429 32.8486 34.3501C32.8486 35.1573 33.4477 35.8117 34.1867 35.8117Z" fill="#1883FF"/>
<path d="M9.5873 8.94174C10.3263 8.94174 10.9253 8.28739 10.9253 7.48021C10.9253 6.67303 10.3263 6.01868 9.5873 6.01868C8.84833 6.01868 8.24927 6.67303 8.24927 7.48021C8.24927 8.28739 8.84833 8.94174 9.5873 8.94174Z" fill="#50A1FF"/>
<path d="M35.5245 4.55699C34.7855 4.55699 34.1865 3.90277 34.1865 3.09545V1.63391C34.1865 0.826587 34.7855 0.172363 35.5245 0.172363C36.2636 0.172363 36.8626 0.826587 36.8626 1.63391V3.09545C36.8626 3.90277 36.2637 4.55699 35.5245 4.55699Z" fill="#FCC727"/>
<path d="M35.5245 11.8646C34.7855 11.8646 34.1865 11.2104 34.1865 10.4031V8.94153C34.1865 8.13421 34.7855 7.47998 35.5245 7.47998C36.2636 7.47998 36.8626 8.13421 36.8626 8.94153V10.4031C36.8626 11.2104 36.2637 11.8646 35.5245 11.8646Z" fill="#FFB800"/>
<path d="M32.8487 7.48009H31.5106C30.7715 7.48009 30.1726 6.82587 30.1726 6.01855C30.1726 5.21123 30.7715 4.55701 31.5106 4.55701H32.8487C33.5878 4.55701 34.1867 5.21123 34.1867 6.01855C34.1867 6.82587 33.5878 7.48009 32.8487 7.48009Z" fill="#FCC727"/>
<path d="M39.5383 7.48009H38.2003C37.4612 7.48009 36.8623 6.82587 36.8623 6.01855C36.8623 5.21123 37.4612 4.55701 38.2003 4.55701H39.5383C40.277 4.55701 40.8764 5.21123 40.8764 6.01855C40.8764 6.82587 40.277 7.48009 39.5383 7.48009Z" fill="#FFB800"/>
<path d="M39.8073 22.7222C38.2462 21.0073 35.6952 21.0073 34.1342 22.7222C32.5731 24.4273 32.5731 27.214 34.1342 28.9191C34.8923 29.7473 35.9004 30.2052 36.9707 30.2052C38.0411 30.2052 39.0492 29.7473 39.8073 28.9191C41.3773 27.214 41.3773 24.4272 39.8073 22.7222ZM37.9203 26.8459C37.3793 27.4379 36.5458 27.4188 36.0266 26.8525C35.5143 26.293 35.5143 25.3482 36.0266 24.7887C36.5526 24.2118 37.3971 24.2206 37.9099 24.7829C38.4524 25.3734 38.4278 26.2951 37.9203 26.8459Z" fill="#FFB800"/>
<path d="M21.495 22.8048C21.1526 22.8048 20.8103 22.6621 20.549 22.3766C20.0263 21.8063 20.0263 20.8804 20.549 20.3099L28.9017 11.1861C29.4243 10.6152 30.2711 10.6152 30.7938 11.1861C31.3164 11.7565 31.3164 12.6823 30.7938 13.2529L22.441 22.3765C22.1796 22.6621 21.8373 22.8048 21.495 22.8048Z" fill="#FCC727"/>
<path d="M20.5488 22.3764C20.8102 22.6619 21.1526 22.8047 21.4948 22.8047C21.8371 22.8047 22.1795 22.6619 22.4408 22.3764L30.7935 13.2527C31.3162 12.6823 31.3162 11.7565 30.7935 11.1859L20.5488 22.3764Z" fill="#FFB800"/>
<path d="M10.3888 37.2957V41.4221L1.78526 44.7311C1.25628 44.9347 0.738047 44.7593 0.397309 44.3891C0.0538474 44.0159 -0.108428 43.4469 0.0788497 42.8662L3.11175 33.4791H6.89833L8.6404 35.384L10.3888 37.2957Z" fill="#9177F8"/>
<path d="M10.3889 37.2956V41.422L1.78541 44.731C1.25644 44.9346 0.738198 44.7592 0.397461 44.389L8.64063 35.3839L10.3889 37.2956Z" fill="#6E4AFF"/>
<path d="M6.57104 27.955L15.4516 37.6591H20.158L25.1696 35.7298C25.8673 35.4563 26.2309 34.6283 25.9902 33.8591L10.0322 16.4375C9.33821 16.1654 8.56963 16.563 8.32842 17.3242L6.57104 22.7628V27.9551V27.955Z" fill="#9177F8"/>
<path d="M15.4511 37.6591H20.1575L25.1692 35.7299C25.8668 35.4563 26.2304 34.6283 25.9898 33.8591L18.0111 25.1486L11.0054 32.801L15.4511 37.6591Z" fill="#6E4AFF"/>
<path d="M6.56155 22.7806L3.10962 33.4792L10.3884 41.4202L10.4152 41.4105L20.1738 37.6495L6.56155 22.7806Z" fill="#FCC727"/>
<path d="M10.389 41.4201L10.4157 41.4104L20.1742 37.6494L13.3708 30.2178L6.74976 37.4499L10.389 41.4201Z" fill="#FFB800"/>
<path d="M26.6175 37.8788C26.2752 37.8788 25.9329 37.736 25.6715 37.4506L6.74867 16.7812C6.22603 16.2108 6.22603 15.285 6.74867 14.7144C7.27132 14.1435 8.11811 14.1435 8.64076 14.7144L27.5635 35.3839C28.0861 35.9543 28.0861 36.8801 27.5635 37.4507C27.3021 37.736 26.9599 37.8788 26.6175 37.8788Z" fill="#50A1FF"/>
<path d="M25.6718 37.4507C25.9331 37.7361 26.2756 37.8789 26.6178 37.8789C26.9601 37.8789 27.3025 37.7361 27.5638 37.4507C28.0865 36.8803 28.0865 35.9545 27.5638 35.3839L18.1025 25.0493L16.2104 27.1161L25.6718 37.4507Z" fill="#1883FF"/>
</svg>
