
<svg width="100%" height="100%" viewBox="0 0 65 65" fill="none" xmlns="http://www.w3.org/2000/svg">
<path d="M59.2871 0.126953H5.71289C2.5628 0.126953 0 2.68976 0 5.83984V59.1602C0 62.3102 2.5628 64.873 5.71289 64.873H59.2871C62.4372 64.873 65 62.3102 65 59.1602V5.83984C65 2.68976 62.4372 0.126953 59.2871 0.126953ZM5.71289 3.93555H59.2871C60.3371 3.93555 61.1914 4.78981 61.1914 5.83984V15.3613H3.80859V5.83984C3.80859 4.78981 4.66286 3.93555 5.71289 3.93555ZM59.2871 61.0645H5.71289C4.66286 61.0645 3.80859 60.2102 3.80859 59.1602V19.1699H61.1914V59.1602C61.1914 60.2102 60.3371 61.0645 59.2871 61.0645Z" fill="#A64AC9"/>
<path d="M38.9631 25.0368C37.9965 24.6225 36.8769 25.0703 36.4626 26.0369L25.0368 52.697C24.6224 53.6637 25.0703 54.7833 26.037 55.1975C27.004 55.6119 28.1233 55.1637 28.5374 54.1974L39.9632 27.5372C40.3776 26.5705 39.9297 25.451 38.9631 25.0368V25.0368Z" fill="#A64AC9"/>
<path d="M22.5612 31.3103C21.9041 30.489 20.7055 30.356 19.8847 31.013L10.3632 38.6302C9.41116 39.3915 9.41052 40.8422 10.3632 41.6042L19.8847 49.2213C20.7059 49.8785 21.9045 49.7452 22.5612 48.924C23.2182 48.1028 23.0852 46.9043 22.2638 46.2475L14.6011 40.1172L22.2638 33.987C23.0852 33.33 23.2182 32.1317 22.5612 31.3103V31.3103Z" fill="#A64AC9"/>
<path d="M54.6368 38.6302L45.1153 31.013C44.294 30.3559 43.0956 30.4891 42.4387 31.3103C41.7818 32.1316 41.9148 33.33 42.7362 33.9869L50.3988 40.1172L42.7362 46.2474C41.9148 46.9044 41.7818 48.1027 42.4387 48.9239C43.0966 49.7461 44.2952 49.8776 45.1153 49.2213L54.6368 41.6041C55.5888 40.8427 55.5894 39.3922 54.6368 38.6302Z" fill="#A64AC9"/>
<path d="M9.64844 11.5527C10.7002 11.5527 11.5527 10.7002 11.5527 9.64844C11.5527 8.59672 10.7002 7.74414 9.64844 7.74414C8.59672 7.74414 7.74414 8.59672 7.74414 9.64844C7.74414 10.7002 8.59672 11.5527 9.64844 11.5527Z" fill="#A64AC9"/>
<path d="M17.2656 11.5527C18.3173 11.5527 19.1699 10.7002 19.1699 9.64844C19.1699 8.59672 18.3173 7.74414 17.2656 7.74414C16.2139 7.74414 15.3613 8.59672 15.3613 9.64844C15.3613 10.7002 16.2139 11.5527 17.2656 11.5527Z" fill="#A64AC9"/>
<path d="M24.8828 11.5527C25.9345 11.5527 26.7871 10.7002 26.7871 9.64844C26.7871 8.59672 25.9345 7.74414 24.8828 7.74414C23.8311 7.74414 22.9785 8.59672 22.9785 9.64844C22.9785 10.7002 23.8311 11.5527 24.8828 11.5527Z" fill="#A64AC9"/>
<path d="M43.9258 11.5527H55.3516C56.4032 11.5527 57.2559 10.7001 57.2559 9.64844C57.2559 8.59676 56.4032 7.74414 55.3516 7.74414H43.9258C42.8741 7.74414 42.0215 8.59676 42.0215 9.64844C42.0215 10.7001 42.8741 11.5527 43.9258 11.5527Z" fill="#A64AC9"/>
</svg>