<svg width="100%" height="100%" viewBox="0 0 88 88" fill="none" xmlns="http://www.w3.org/2000/svg">
<g clip-path="url(#clip0)">
<path d="M13.1267 77.7187H65.4097L62.9127 69.6337L68.8857 74.7597L74.36 79.6657L84.3334 88V9.075C84.084 4.169 79.86 0 74.624 0L13.145 0.011C7.91269 0.011 3.66669 4.18733 3.66669 9.09333V68.64C3.66669 73.8137 7.90535 77.7187 13.1267 77.7187V77.7187ZM51.8027 20.8377L51.6817 20.8817L51.7257 20.8377H51.8027ZM23.8224 25.4907C30.5434 20.5993 36.773 20.834 36.773 20.834L37.2754 21.329C29.051 23.2907 25.322 26.9647 25.322 26.9647C25.322 26.9647 26.3194 26.477 28.061 25.7327C39.138 21.3767 51.2344 21.692 62.4324 27.2067C62.4324 27.2067 58.696 23.771 50.9777 21.571L51.6597 20.9C52.7267 20.9037 58.3734 21.1017 64.416 25.52C64.416 25.52 71.1774 37.07 71.1774 51.26C70.9537 50.9887 66.9827 57.3687 56.7637 57.5887C56.7637 57.5887 55.033 55.6307 53.801 53.922C59.7777 52.206 62.0144 48.774 62.0144 48.774C60.0527 50.0097 58.2634 50.743 56.8114 51.4763C54.5784 52.459 52.3417 52.943 50.1087 53.438C39.534 55.154 33.5977 52.283 27.9877 50.006L26.07 49.0307C26.07 49.0307 28.303 52.4627 34.0414 54.1787C32.5344 55.8983 31.042 57.8527 31.042 57.8527C20.8267 57.6107 17.1014 51.2307 17.1014 51.2307C17.1014 37.0187 23.8224 25.4907 23.8224 25.4907V25.4907Z" fill="#A64AC9"/>
<path d="M52.4627 46.8269C55.0697 46.8269 57.1927 44.6269 57.1927 41.9136C57.1927 39.2186 55.0807 37.0186 52.4627 37.0186V37.0296C49.8667 37.0296 47.74 39.2222 47.7327 41.9356C47.7327 44.6269 49.8557 46.8269 52.4627 46.8269Z" fill="#A64AC9"/>
<path d="M35.53 46.8269C38.137 46.8269 40.26 44.6269 40.26 41.9136C40.26 39.2186 38.1517 37.0186 35.5447 37.0186L35.53 37.0296C32.923 37.0296 30.8 39.2222 30.8 41.9356C30.8 44.6269 32.923 46.8269 35.53 46.8269V46.8269Z" fill="#A64AC9"/>
</g>
<defs>
<clipPath id="clip0">
<rect width="88" height="88" fill="white"/>
</clipPath>
</defs>
</svg>