<svg width="100%" height="100%" viewBox="0 0 40 42" fill="none" xmlns="http://www.w3.org/2000/svg">
<g clip-path="url(#clip0)">
<path d="M14.4695 38.2112C15.4085 40.4401 17.5334 42.0001 20 42.0001C22.4666 42.0001 24.5915 40.4401 25.5305 38.2112H14.4695Z" fill="#3C4858"/>
<path d="M19.9995 4.01269C21.6272 4.01269 23.1901 4.31424 24.6405 4.86632V4.67874C24.6405 2.09887 22.6415 0 20.1846 0H19.8153C17.3583 0 15.3594 2.09887 15.3594 4.67874V4.86394C16.809 4.3135 18.3714 4.01269 19.9995 4.01269Z" fill="#3C4858"/>
<path d="M34.6466 35.7461H5.3532C4.799 35.7461 4.29137 35.3537 4.1761 34.7844C4.06201 34.2208 4.30663 33.6646 4.80292 33.4238C4.92069 33.3436 5.80715 32.6928 6.69463 30.7237C8.32458 27.1075 8.66671 22.0136 8.66671 18.377C8.66671 11.8156 13.7506 6.47766 19.9995 6.47766C26.2336 6.47766 31.3082 11.7899 31.3323 18.3298C31.3328 18.3455 31.3331 18.3613 31.3331 18.377C31.3331 22.0136 31.6753 27.1075 33.3052 30.7237C34.1927 32.6928 35.0791 33.3437 35.1969 33.4238C35.6932 33.6646 35.9379 34.2207 35.8237 34.7844C35.7085 35.3536 35.2009 35.7461 34.6466 35.7461ZM35.2101 33.4325H35.2108H35.2101Z" fill="#3C4858"/>
</g>
<defs>
<clipPath id="clip0">
<rect width="40" height="42" fill="white"/>
</clipPath>
</defs>
</svg>
