<svg width="41" height="41" viewBox="0 0 41 41" fill="none" xmlns="http://www.w3.org/2000/svg">
<g clip-path="url(#clip0)">
<path d="M32.5974 30.1902C32.4485 30.0413 32.2419 29.9556 32.0312 29.9556C31.8206 29.9556 31.614 30.0413 31.4651 30.1902C31.3162 30.3391 31.2305 30.5457 31.2305 30.7563C31.2305 30.967 31.3162 31.1736 31.4651 31.3225C31.614 31.4722 31.8206 31.5571 32.0312 31.5571C32.2419 31.5571 32.4485 31.4722 32.5974 31.3225C32.7463 31.1736 32.832 30.967 32.832 30.7563C32.832 30.5457 32.7463 30.3392 32.5974 30.1902Z" fill="#A64AC9"/>
<path d="M37.7969 0.000976562H3.20312C1.43692 0.000976562 0 1.4379 0 3.2041V28.3553C0 30.1215 1.43692 31.5584 3.20312 31.5584H15.7754V35.5781C13.4265 35.8069 11.5847 37.7922 11.5847 40.2001C11.5847 40.6424 11.9432 41.0009 12.3854 41.0009H28.6146C29.0569 41.0009 29.4154 40.6424 29.4154 40.2001C29.4154 37.7378 27.4891 35.718 25.0645 35.5658V31.5584H28.8015C29.2438 31.5584 29.6023 31.1999 29.6023 30.7576C29.6023 30.3154 29.2438 29.9568 28.8015 29.9568H3.20312C2.32002 29.9568 1.60156 29.2384 1.60156 28.3553V3.2041C1.60156 2.321 2.32002 1.60254 3.20312 1.60254H37.7969C38.68 1.60254 39.3984 2.321 39.3984 3.2041V28.3553C39.3984 29.2384 38.68 29.9568 37.7969 29.9568H34.8073C34.365 29.9568 34.0065 30.3154 34.0065 30.7576C34.0065 31.1999 34.365 31.5584 34.8073 31.5584H37.7969C39.5631 31.5584 41 30.1215 41 28.3553V3.2041C41 1.43782 39.5631 0.000976562 37.7969 0.000976562ZM17.377 31.5584H23.4629V35.5557H17.377V31.5584ZM24.7708 37.1572C26.1717 37.1572 27.3545 38.1087 27.707 39.3994H13.293C13.6454 38.1087 14.8282 37.1572 16.2291 37.1572H24.7708Z" fill="#A64AC9"/>
<path d="M20.9861 27.6278C20.8371 27.4789 20.6305 27.3932 20.4199 27.3932C20.2093 27.3932 20.0027 27.4789 19.8538 27.6278C19.7048 27.7768 19.6191 27.9834 19.6191 28.194C19.6191 28.4054 19.7048 28.6112 19.8538 28.7601C20.0027 28.9099 20.2093 28.9948 20.4199 28.9948C20.6305 28.9948 20.8371 28.9099 20.9861 28.7601C21.135 28.6112 21.2207 28.4054 21.2207 28.194C21.2207 27.9834 21.135 27.7768 20.9861 27.6278Z" fill="#A64AC9"/>
<path d="M11.7071 14.6795L15.6306 10.756C15.9434 10.4433 15.9434 9.93627 15.6307 9.62357C15.318 9.31086 14.8109 9.31086 14.4981 9.62357L10.0085 14.1132C9.69575 14.4259 9.69575 14.933 10.0085 15.2458L14.4981 19.7354C14.6545 19.8918 14.8594 19.97 15.0643 19.97C15.2693 19.97 15.4743 19.8918 15.6306 19.7354C15.9433 19.4227 15.9433 18.9157 15.6306 18.6029L11.7071 14.6795Z" fill="#A64AC9"/>
<path d="M30.9914 14.1132L26.5017 9.62357C26.189 9.31086 25.682 9.31086 25.3692 9.62357C25.0565 9.93627 25.0565 10.4433 25.3692 10.7561L29.2927 14.6795L25.3692 18.603C25.0565 18.9157 25.0565 19.4227 25.3693 19.7354C25.5256 19.8918 25.7306 19.97 25.9355 19.97C26.1404 19.97 26.3454 19.8918 26.5017 19.7354L30.9914 15.2458C31.3041 14.933 31.3041 14.426 30.9914 14.1132Z" fill="#A64AC9"/>
<path d="M21.9059 9.7319C21.4788 9.61723 21.0396 9.87099 20.9251 10.2981L18.5277 19.2453C18.4133 19.6726 18.6668 20.1116 19.0939 20.2261C19.1634 20.2447 19.2331 20.2536 19.3017 20.2536C19.6553 20.2536 19.9789 20.0176 20.0747 19.6599L22.4721 10.7127C22.5866 10.2854 22.3331 9.84641 21.9059 9.7319Z" fill="#A64AC9"/>
<path d="M36.9961 3.20984H24.2637C23.8214 3.20984 23.4629 3.56835 23.4629 4.01062C23.4629 4.45289 23.8214 4.8114 24.2637 4.8114H36.1953V24.8309H4.80469V4.8114H17.0967C17.539 4.8114 17.8975 4.45289 17.8975 4.01062C17.8975 3.56835 17.539 3.20984 17.0967 3.20984H4.00391C3.56163 3.20984 3.20312 3.56835 3.20312 4.01062V25.6317C3.20312 26.074 3.56163 26.4325 4.00391 26.4325H36.9961C37.4384 26.4325 37.7969 26.074 37.7969 25.6317V4.01062C37.7969 3.56835 37.4384 3.20984 36.9961 3.20984Z" fill="#A64AC9"/>
<path d="M21.2263 3.44422C21.0774 3.29528 20.8708 3.20959 20.6602 3.20959C20.4496 3.20959 20.2429 3.29528 20.094 3.44422C19.9451 3.59317 19.8594 3.79977 19.8594 4.01038C19.8594 4.22098 19.9451 4.42758 20.094 4.57733C20.2429 4.72627 20.4496 4.81116 20.6602 4.81116C20.8708 4.81116 21.0774 4.72627 21.2263 4.57733C21.3753 4.42758 21.4609 4.22178 21.4609 4.01038C21.4609 3.79977 21.3753 3.59317 21.2263 3.44422Z" fill="#A64AC9"/>
</g>
<defs>
<clipPath id="clip0">
<rect width="41" height="41" fill="white"/>
</clipPath>
</defs>
</svg>