<svg width="100%" height="100%" viewBox="0 0 82 82" fill="none" xmlns="http://www.w3.org/2000/svg">
<g clip-path="url(#clip0)">
<path d="M41 1.70837C18.3475 1.70837 0 19.7484 0 41.9977C0 59.802 11.7465 74.9002 28.0338 80.2234C30.0838 80.6026 30.8354 79.3555 30.8354 78.2861C30.8354 77.3295 30.8013 74.7943 30.7842 71.4357C19.3793 73.865 16.974 66.0305 16.974 66.0305C15.1085 61.3805 12.4127 60.1368 12.4127 60.1368C8.69883 57.6392 12.6998 57.6905 12.6998 57.6905C16.8168 57.9706 18.9796 61.8417 18.9796 61.8417C22.6354 68.002 28.577 66.2219 30.9208 65.1935C31.2898 62.5865 32.3456 60.8133 33.5175 59.8054C24.4121 58.7975 14.842 55.333 14.842 39.8965C14.842 35.4992 16.4308 31.9049 19.0616 29.0861C18.6003 28.068 17.2166 23.9714 19.4203 18.4227C19.4203 18.4227 22.8541 17.343 30.6953 22.5535C33.9753 21.6583 37.4603 21.2141 40.9453 21.1936C44.4303 21.2141 47.9153 21.6583 51.1953 22.5535C58.9853 17.343 62.4191 18.4227 62.4191 18.4227C64.6228 23.9714 63.2391 28.068 62.8291 29.0861C65.4428 31.9049 67.0316 35.4992 67.0316 39.8965C67.0316 55.374 57.4478 58.7804 48.3253 59.7712C49.7603 60.9807 51.0928 63.451 51.0928 67.2264C51.0928 72.6179 51.0416 76.9502 51.0416 78.2588C51.0416 79.3145 51.7591 80.5753 53.8603 80.1721C70.2638 74.8831 82 59.7746 82 41.9977C82 19.7484 63.6423 1.70837 41 1.70837V1.70837Z" fill="#A64AC9"/>
</g>
<defs>
<clipPath id="clip0">
<rect width="82" height="82" fill="white"/>
</clipPath>
</defs>
</svg>
