<svg width="18" height="18" viewBox="0 0 18 18" fill="none" xmlns="http://www.w3.org/2000/svg">
<path d="M13.6633 5.45846C14.2597 5.45846 14.7433 4.97493 14.7433 4.37846C14.7433 3.78199 14.2597 3.29846 13.6633 3.29846C13.0668 3.29846 12.5833 3.78199 12.5833 4.37846C12.5833 4.97493 13.0668 5.45846 13.6633 5.45846Z" fill="#A64AC9"/>
<path d="M9 13.5C6.51825 13.5 4.5 11.4818 4.5 9C4.5 6.51825 6.51825 4.5 9 4.5C11.4818 4.5 13.5 6.51825 13.5 9C13.5 11.4818 11.4818 13.5 9 13.5ZM9 6.75C7.75912 6.75 6.75 7.75912 6.75 9C6.75 10.2409 7.75912 11.25 9 11.25C10.2409 11.25 11.25 10.2409 11.25 9C11.25 7.75912 10.2409 6.75 9 6.75Z" fill="#A64AC9"/>
<path d="M13.5 18H4.5C2.187 18 0 15.813 0 13.5V4.5C0 2.187 2.187 0 4.5 0H13.5C15.813 0 18 2.187 18 4.5V13.5C18 15.813 15.813 18 13.5 18ZM4.5 2.25C3.44812 2.25 2.25 3.44812 2.25 4.5V13.5C2.25 14.5721 3.42788 15.75 4.5 15.75H13.5C14.5519 15.75 15.75 14.5519 15.75 13.5V4.5C15.75 3.44812 14.5519 2.25 13.5 2.25H4.5Z" fill="#A64AC9"/>
</svg>
