<svg width="100%" height="100%" viewBox="0 0 43 43" fill="none" xmlns="http://www.w3.org/2000/svg">
<path d="M13.4376 19.7084H0.895996V41.2084H13.4376V19.7084Z" fill="#0277BD"/>
<path d="M13.4375 42.1041H0.895861C0.401109 42.1041 0 41.7031 0 41.2084V19.7084C0 19.2136 0.401109 18.8125 0.895861 18.8125H13.4375C13.9323 18.8125 14.3334 19.2136 14.3334 19.7084V41.2084C14.3334 41.7031 13.9323 42.1041 13.4375 42.1041ZM1.79164 40.3125H12.5416V20.6041H1.79164V40.3125Z" fill="#01579B"/>
<path d="M13.4375 37.6249C14.9988 38.7676 16.8779 39.394 18.8125 39.4166H35.3854C37.113 39.4226 38.5185 38.027 38.5246 36.2992C38.5276 35.4306 38.1693 34.5997 37.5354 34.0057C39.2462 33.8209 40.4832 32.2841 40.2984 30.5734C40.2181 29.8303 39.8733 29.1408 39.3271 28.6307C41.0381 28.4479 42.277 26.9126 42.0941 25.2016C41.9818 24.1511 41.3448 23.229 40.4021 22.7522C42.0833 21.7081 42.5997 19.4988 41.5556 17.8177C40.9037 16.7678 39.7567 16.1281 38.5209 16.1249H25.9791C26.9634 13.5382 27.5669 10.8224 27.7708 8.06236C27.7708 4.70299 24.8593 1.7915 23.2916 1.7915C22.3248 1.80561 21.386 2.11854 20.6041 2.68737V8.95823L15.2291 20.6041L13.4375 21.4999V37.6249Z" fill="#ECEFF1"/>
<path d="M35.3853 40.3125H18.8124C16.6401 40.2952 14.5318 39.5749 12.8031 38.2593C12.6352 38.091 12.5411 37.8628 12.5415 37.625V21.5C12.5415 21.161 12.7329 20.851 13.036 20.6991L14.5464 19.943L19.7081 8.76303V2.68751C19.7076 2.41524 19.8308 2.1574 20.0432 1.987C20.986 1.29413 22.1215 0.912755 23.2914 0.895874C25.3644 0.895874 28.6664 4.17639 28.6664 8.06251C28.531 10.5073 28.0484 12.9203 27.2331 15.2292H38.5206C40.9943 15.2292 42.9997 17.2345 42.9997 19.7083C43.0026 20.82 42.5868 21.8921 41.8351 22.7112C43.3943 24.2809 43.3858 26.8175 41.816 28.3767C41.5144 28.6763 41.167 28.926 40.787 29.1164C41.0658 29.6724 41.21 30.2861 41.208 30.908C41.2063 32.4245 40.3503 33.8106 38.9952 34.4914C39.2741 35.0474 39.4183 35.6611 39.4163 36.283C39.4126 38.5075 37.6098 40.3096 35.3853 40.3125ZM14.3332 37.2148C15.6898 38.0265 17.2321 38.4763 18.8124 38.5209H35.3853C36.6218 38.5199 37.6239 37.5178 37.6249 36.2813C37.625 35.6658 37.3685 35.0783 36.9171 34.6598C36.5568 34.3208 36.5394 33.7538 36.8783 33.3935C37.0235 33.239 37.2189 33.1411 37.4295 33.1172C38.6487 32.9883 39.5327 31.8954 39.4037 30.6762C39.3475 30.1438 39.1006 29.6496 38.7088 29.2848C38.3484 28.9458 38.331 28.3788 38.67 28.0185C38.8152 27.864 39.0105 27.7661 39.2212 27.7422C40.4404 27.6137 41.3246 26.5211 41.1961 25.3019C41.1167 24.5477 40.6577 23.8863 39.979 23.5479C39.5394 23.321 39.3669 22.7807 39.5938 22.341C39.6685 22.1962 39.7812 22.0746 39.9199 21.9891C41.1796 21.2041 41.5644 19.5466 40.7794 18.2869C40.2928 17.5061 39.4406 17.0284 38.5206 17.0209H25.979C25.4843 17.0206 25.0834 16.6193 25.0836 16.1246C25.0837 16.0158 25.1036 15.9078 25.1424 15.8061C26.0864 13.3208 26.6699 10.7131 26.8749 8.06251C26.8749 5.12776 24.2734 2.68751 23.2915 2.68751C22.6631 2.69767 22.0473 2.86455 21.4999 3.17303V8.95829C21.4997 9.08813 21.4716 9.21646 21.4175 9.33454L16.0425 20.9804C15.9572 21.1645 15.8119 21.3142 15.6304 21.405L14.3332 22.0536V37.2148Z" fill="#01579B"/>
</svg>
