<svg width="100%" height="100%" viewBox="0 0 73 73" fill="none" xmlns="http://www.w3.org/2000/svg">
<g clip-path="url(#clip0)">
<path d="M26.8974 38.4802C22.6634 38.4802 19.2294 41.9143 19.2294 46.1483V65.329C19.2294 69.563 22.6634 72.997 26.8974 72.997C31.1314 72.997 34.5654 69.563 34.5654 65.329V46.1483C34.5624 41.9143 31.1284 38.4802 26.8974 38.4802Z" fill="#A64AC9"/>
<path d="M0.0578003 46.1481C0.0578003 50.3852 3.49488 53.8222 7.73193 53.8222C11.969 53.8222 15.4061 50.3852 15.4061 46.1481V38.474H7.73801C7.73497 38.474 7.73497 38.474 7.73193 38.474C3.49488 38.474 0.0578003 41.9111 0.0578003 46.1481V46.1481Z" fill="#A64AC9"/>
<path d="M26.9066 -0.00305176C26.9035 -0.00305176 26.9005 -0.00305176 26.8975 -0.00305176C22.6604 -0.00305176 19.2233 3.43403 19.2233 7.67107C19.2233 11.9081 22.6604 15.3452 26.8975 15.3452H34.5655C34.5655 10.9926 34.5655 12.0511 34.5655 7.65586C34.5624 3.42491 31.1345 -0.00305176 26.9066 -0.00305176V-0.00305176Z" fill="#A64AC9"/>
<path d="M7.68023 34.5837H26.8975C31.1345 34.5837 34.5716 31.1466 34.5716 26.9096C34.5716 22.6726 31.1345 19.2355 26.8975 19.2355H7.68023C3.44319 19.2355 0.00610352 22.6726 0.00610352 26.9096C0.00610352 31.1466 3.44319 34.5837 7.68023 34.5837V34.5837Z" fill="#A64AC9"/>
<path d="M65.2651 19.2324C61.0341 19.2324 57.6061 22.6604 57.6061 26.8913V26.9065V34.5807H65.2742C69.5112 34.5807 72.9483 31.1436 72.9483 26.9065C72.9483 22.6695 69.5112 19.2324 65.2742 19.2324C65.2711 19.2324 65.2681 19.2324 65.2651 19.2324V19.2324Z" fill="#A64AC9"/>
<path d="M38.4497 7.67109V26.9096C38.4497 31.1436 41.8837 34.5777 46.1177 34.5777C50.3517 34.5777 53.7858 31.1436 53.7858 26.9096V7.67109C53.7858 3.43709 50.3517 0.00305176 46.1177 0.00305176C41.8837 0.00305176 38.4497 3.43709 38.4497 7.67109V7.67109Z" fill="#A64AC9"/>
<path d="M53.7828 65.3228C53.7828 61.0888 50.3488 57.6548 46.1148 57.6548H38.4467V65.3289C38.4498 69.5599 41.8808 72.9909 46.1148 72.9909C50.3488 72.9909 53.7828 69.5568 53.7828 65.3228Z" fill="#A64AC9"/>
<path d="M65.332 38.474H46.1147C41.8777 38.474 38.4406 41.9111 38.4406 46.1481C38.4406 50.3852 41.8777 53.8222 46.1147 53.8222H65.332C69.5691 53.8222 73.0061 50.3852 73.0061 46.1481C73.0061 41.9111 69.5691 38.474 65.332 38.474V38.474Z" fill="#A64AC9"/>
</g>
<defs>
<clipPath id="clip0">
<rect width="73" height="73" fill="white"/>
</clipPath>
</defs>
</svg>
