<svg width="100%" height="100%" viewBox="0 0 106 88" fill="none" xmlns="http://www.w3.org/2000/svg">
<path d="M106 11.1334C102.058 12.8625 97.8579 14.0086 93.4787 14.5651C97.9837 11.8754 101.422 7.64862 103.039 2.554C98.8384 5.05825 94.2009 6.82713 89.2586 7.81425C85.2704 3.56763 79.5861 0.9375 73.3851 0.9375C61.3541 0.9375 51.6684 10.7028 51.6684 22.6741C51.6684 24.3966 51.8141 26.0529 52.1719 27.6296C34.1055 26.7485 18.1194 18.0896 7.38025 4.89925C5.50537 8.15213 4.40563 11.8754 4.40563 15.8835C4.40563 23.4095 8.28125 30.0809 14.0582 33.9432C10.5669 33.877 7.14175 32.8634 4.24 31.2668C4.24 31.333 4.24 31.4191 4.24 31.5052C4.24 42.0655 11.7726 50.837 21.6505 52.8576C19.8816 53.3412 17.9537 53.5731 15.953 53.5731C14.5617 53.5731 13.1572 53.4936 11.8389 53.2021C14.6545 61.808 22.6443 68.1349 32.1445 68.3402C24.751 74.1239 15.3634 77.6086 5.20063 77.6086C3.4185 77.6086 1.70925 77.5291 0 77.3105C9.62612 83.5181 21.0344 87.0625 33.337 87.0625C73.3255 87.0625 95.188 53.9375 95.188 25.2247C95.188 24.2641 95.1549 23.3366 95.1085 22.4158C99.4214 19.355 103.045 15.5324 106 11.1334Z" fill="#A64AC9"/>
</svg>
