<svg width="100%" height="100%" viewBox="0 0 50 50" fill="none" xmlns="http://www.w3.org/2000/svg">
<rect width="50" height="50" rx="7" fill="black"/>
<g clip-path="url(#clip0)">
<path d="M36.5974 35.1902C36.4485 35.0413 36.2419 34.9556 36.0312 34.9556C35.8206 34.9556 35.614 35.0413 35.4651 35.1902C35.3162 35.3391 35.2305 35.5457 35.2305 35.7563C35.2305 35.967 35.3162 36.1736 35.4651 36.3225C35.614 36.4722 35.8206 36.5571 36.0312 36.5571C36.2419 36.5571 36.4485 36.4722 36.5974 36.3225C36.7463 36.1736 36.832 35.967 36.832 35.7563C36.832 35.5457 36.7463 35.3392 36.5974 35.1902Z" fill="#A64AC9"/>
<path d="M41.7969 5.00098H7.20312C5.43692 5.00098 4 6.4379 4 8.2041V33.3553C4 35.1215 5.43692 36.5584 7.20312 36.5584H19.7754V40.5781C17.4265 40.8069 15.5847 42.7922 15.5847 45.2001C15.5847 45.6424 15.9432 46.0009 16.3854 46.0009H32.6146C33.0569 46.0009 33.4154 45.6424 33.4154 45.2001C33.4154 42.7378 31.4891 40.718 29.0645 40.5658V36.5584H32.8015C33.2438 36.5584 33.6023 36.1999 33.6023 35.7576C33.6023 35.3154 33.2438 34.9568 32.8015 34.9568H7.20312C6.32002 34.9568 5.60156 34.2384 5.60156 33.3553V8.2041C5.60156 7.321 6.32002 6.60254 7.20312 6.60254H41.7969C42.68 6.60254 43.3984 7.321 43.3984 8.2041V33.3553C43.3984 34.2384 42.68 34.9568 41.7969 34.9568H38.8073C38.365 34.9568 38.0065 35.3154 38.0065 35.7576C38.0065 36.1999 38.365 36.5584 38.8073 36.5584H41.7969C43.5631 36.5584 45 35.1215 45 33.3553V8.2041C45 6.43782 43.5631 5.00098 41.7969 5.00098ZM21.377 36.5584H27.4629V40.5557H21.377V36.5584ZM28.7708 42.1572C30.1717 42.1572 31.3545 43.1087 31.707 44.3994H17.293C17.6454 43.1087 18.8282 42.1572 20.2291 42.1572H28.7708Z" fill="#A64AC9"/>
<path d="M24.9861 32.6278C24.8371 32.4789 24.6305 32.3932 24.4199 32.3932C24.2093 32.3932 24.0027 32.4789 23.8538 32.6278C23.7048 32.7768 23.6191 32.9834 23.6191 33.194C23.6191 33.4054 23.7048 33.6112 23.8538 33.7601C24.0027 33.9099 24.2093 33.9948 24.4199 33.9948C24.6305 33.9948 24.8371 33.9099 24.9861 33.7601C25.135 33.6112 25.2207 33.4054 25.2207 33.194C25.2207 32.9834 25.135 32.7768 24.9861 32.6278Z" fill="#A64AC9"/>
<path d="M15.7071 19.6795L19.6306 15.756C19.9434 15.4433 19.9434 14.9363 19.6307 14.6236C19.318 14.3109 18.8109 14.3109 18.4981 14.6236L14.0085 19.1132C13.6957 19.4259 13.6957 19.933 14.0085 20.2458L18.4981 24.7354C18.6545 24.8918 18.8594 24.97 19.0643 24.97C19.2693 24.97 19.4743 24.8918 19.6306 24.7354C19.9433 24.4227 19.9433 23.9157 19.6306 23.6029L15.7071 19.6795Z" fill="#A64AC9"/>
<path d="M34.9914 19.1132L30.5017 14.6236C30.189 14.3109 29.682 14.3109 29.3692 14.6236C29.0565 14.9363 29.0565 15.4433 29.3692 15.7561L33.2927 19.6795L29.3692 23.603C29.0565 23.9157 29.0565 24.4227 29.3693 24.7354C29.5256 24.8918 29.7306 24.97 29.9355 24.97C30.1404 24.97 30.3454 24.8918 30.5017 24.7354L34.9914 20.2458C35.3041 19.933 35.3041 19.426 34.9914 19.1132Z" fill="#A64AC9"/>
<path d="M25.9059 14.7319C25.4788 14.6172 25.0396 14.871 24.9251 15.2981L22.5277 24.2453C22.4133 24.6726 22.6668 25.1116 23.0939 25.2261C23.1634 25.2447 23.2331 25.2536 23.3017 25.2536C23.6553 25.2536 23.9789 25.0176 24.0747 24.6599L26.4721 15.7127C26.5866 15.2854 26.3331 14.8464 25.9059 14.7319Z" fill="#A64AC9"/>
<path d="M40.9961 8.20984H28.2637C27.8214 8.20984 27.4629 8.56835 27.4629 9.01062C27.4629 9.45289 27.8214 9.8114 28.2637 9.8114H40.1953V29.8309H8.80469V9.8114H21.0967C21.539 9.8114 21.8975 9.45289 21.8975 9.01062C21.8975 8.56835 21.539 8.20984 21.0967 8.20984H8.00391C7.56163 8.20984 7.20312 8.56835 7.20312 9.01062V30.6317C7.20312 31.074 7.56163 31.4325 8.00391 31.4325H40.9961C41.4384 31.4325 41.7969 31.074 41.7969 30.6317V9.01062C41.7969 8.56835 41.4384 8.20984 40.9961 8.20984Z" fill="#A64AC9"/>
<path d="M25.2263 8.44422C25.0774 8.29528 24.8708 8.20959 24.6602 8.20959C24.4496 8.20959 24.2429 8.29528 24.094 8.44422C23.9451 8.59317 23.8594 8.79977 23.8594 9.01038C23.8594 9.22098 23.9451 9.42758 24.094 9.57733C24.2429 9.72627 24.4496 9.81116 24.6602 9.81116C24.8708 9.81116 25.0774 9.72627 25.2263 9.57733C25.3753 9.42758 25.4609 9.22178 25.4609 9.01038C25.4609 8.79977 25.3753 8.59317 25.2263 8.44422Z" fill="#A64AC9"/>
</g>
<defs>
<clipPath id="clip0">
<rect width="41" height="41" fill="white" transform="translate(4 5)"/>
</clipPath>
</defs>
</svg>
